*******************************************************************************
              tHE gERBER sYNDROME (2011)  WEBRip - RadioResearch
*******************************************************************************

-------------------------------------------------------------------------------
                              General Information
-------------------------------------------------------------------------------
Type.................: Movie



Video Format.........: AVI
Video Bitrate........: 1629
Resolution...........: 640 x 360
Color................: 8 bit
FPS..................: 25.000
Source...............: WEB 16:9
Original Format......: NTSC
Genre................: Drama / Horror / Sci-Fi
IMDb Rating..........: 5.5
Movie Information....: http://www.imdb.com/title/tt1820701/

-------------------------------------------------------------------------------
                               Post Information
-------------------------------------------------------------------------------
Posted by............: RadioResearch
Posted on............: 5/19/2013

-------------------------------------------------------------------------------
                                 Release Notes
-------------------------------------------------------------------------------
SEEDBOX SUPPORTED!!

The Gerber's Syndrome is an contagious viral disease that was discovered in 
Germany in 2008 and spread all over the world. It is extremely contagious, fast 
spreading, and deadly. This syndrome is very difficult to spot, because it's 
like a normal dose of the flu, with all the subsequent symptoms that most of us 
are familiar with; but later, the virus affects the brain cells causing serious 
damage to the central nervous system. A TV crew is making a documentary about 
the disease and the way society is coping with it by documenting the stories of 
three people who are dealing with Gerber's Syndrome: Melissa is a young girl 
that has been infected, Doctor Ricardi is the doctor who is following her and 
Luigi is a member of the CS, the security organization that has to deal with 
infected people. The TV crew follow the lives of this characters, becoming 
characters themselves since they are constantly in the action. We see how the 
syndrome progress in Melissa and the way her family and Doctor 

Remember where you got it first!
Enjoy!

RadioResearch

General
Complete name                            : G:The Gerber Syndrome (2011) WEBRip 
- RadioResearchThe Gerber Syndrome (HD).avi
Format                                   : AVI
Format/Info                              : Audio Video Interleave
File size                                : 1 001 MiB
Duration                                 : 1h 25mn
Overall bit rate                         : 1 629 Kbps

Video
ID                                       : 0
Format                                   : mp43
Codec ID                                 : mp43
Duration                                 : 1h 25mn
Bit rate                                 : 1 489 Kbps
Width                                    : 640 pixels
Height                                   : 360 pixels
Display aspect ratio                     : 16:9
Frame rate                               : 25.000 fps
Bits/(Pixel*Frame)                       : 0.259
Stream size                              : 915 MiB (91%)

Audio
ID                                       : 1
Format                                   : MPEG Audio
Format version                           : Version 1
Format profile                           : Layer 3
Mode                                     : Joint stereo
Mode extension                           : MS Stereo
Codec ID                                 : 55
Codec ID/Hint                            : MP3
Duration                                 : 1h 25mn
Bit rate mode                            : Constant
Bit rate                                 : 128 Kbps
Channel(s)                               : 2 channels
Sampling rate                            : 44.1 KHz
Compression mode                         : Lossy
Stream size                              : 78.6 MiB (8%)
Alignment                                : Aligned on interleaves
Interleave, duration                     : 26 ms (0.65 video frame)
Interleave, preload duration             : 444 ms
Writing library                          : LAME3.98.2

AVI FILE MD5 HASH  af29489592d7b9df34ce3bec77662981



-------------------------------------------------------------------------------
Generated with Cool NFO Creator - http://fly.to/coolbeans
-------------------------------------------------------------------------------
